<svg width="26" height="23" viewBox="0 0 26 23" fill="none" xmlns="http://www.w3.org/2000/svg">
<path d="M24.9971 11.0474C24.7439 10.4863 24.201 10.3517 23.8337 10.3195V6.89962C23.8337 5.63124 22.7091 4.59974 21.3262 4.59974H13.8037V3.00133C14.1861 2.68625 14.4306 2.23318 14.4306 1.7249C14.4306 1.26743 14.2325 0.828695 13.8798 0.505213C13.5271 0.18173 13.0487 0 12.55 0C12.0512 0 11.5729 0.18173 11.2202 0.505213C10.8675 0.828695 10.6694 1.26743 10.6694 1.7249C10.6694 2.23318 10.9138 2.68625 11.2962 3.00133V4.59974H3.77377C2.39089 4.59974 1.26628 5.63124 1.26628 6.89962V10.346L1.16347 10.3529C0.847496 10.3738 0.551868 10.5037 0.336025 10.7163C0.120182 10.929 0.000128189 11.2088 0 11.4994V13.7992C0 14.1042 0.13209 14.3967 0.367213 14.6124C0.602335 14.828 0.92123 14.9492 1.25374 14.9492H1.26628V20.6988C1.26628 21.9672 2.39089 22.9987 3.77377 22.9987H21.3262C22.7091 22.9987 23.8337 21.9672 23.8337 20.6988V14.9492C24.1662 14.9492 24.4851 14.828 24.7202 14.6124C24.9553 14.3967 25.0874 14.1042 25.0874 13.7992V11.5707C25.1021 11.3922 25.0712 11.213 24.9971 11.0474ZM3.77377 20.6988V6.89962H21.3262L21.3274 11.4948L21.3262 11.4994V13.7992L21.3274 13.805L21.3287 20.6988H3.77377Z" fill="url(#paint0_linear_650_1208)"/>
<path d="M8.16186 13.799C9.2005 13.799 10.0425 12.7693 10.0425 11.4991C10.0425 10.2289 9.2005 9.19922 8.16186 9.19922C7.12323 9.19922 6.28125 10.2289 6.28125 11.4991C6.28125 12.7693 7.12323 13.799 8.16186 13.799Z" fill="url(#paint1_linear_650_1208)"/>
<path d="M16.938 13.799C17.9767 13.799 18.8187 12.7693 18.8187 11.4991C18.8187 10.2289 17.9767 9.19922 16.938 9.19922C15.8994 9.19922 15.0574 10.2289 15.0574 11.4991C15.0574 12.7693 15.8994 13.799 16.938 13.799Z" fill="url(#paint2_linear_650_1208)"/>
<path d="M7.53503 16.0991H17.565V18.399H7.53503V16.0991Z" fill="url(#paint3_linear_650_1208)"/>
<defs>
<linearGradient id="paint0_linear_650_1208" x1="4" y1="4" x2="35.5" y2="34" gradientUnits="userSpaceOnUse">
<stop offset="0.08" stop-color="#4266F6"/>
<stop offset="0.71" stop-color="#C540E8"/>
</linearGradient>
<linearGradient id="paint1_linear_650_1208" x1="6.88086" y1="9.99922" x2="12.8462" y2="14.2574" gradientUnits="userSpaceOnUse">
<stop offset="0.08" stop-color="#4266F6"/>
<stop offset="0.71" stop-color="#C540E8"/>
</linearGradient>
<linearGradient id="paint2_linear_650_1208" x1="15.657" y1="9.99922" x2="21.6224" y2="14.2574" gradientUnits="userSpaceOnUse">
<stop offset="0.08" stop-color="#4266F6"/>
<stop offset="0.71" stop-color="#C540E8"/>
</linearGradient>
<linearGradient id="paint3_linear_650_1208" x1="9.13401" y1="16.4991" x2="10.6839" y2="22.3995" gradientUnits="userSpaceOnUse">
<stop offset="0.08" stop-color="#4266F6"/>
<stop offset="0.71" stop-color="#C540E8"/>
</linearGradient>
</defs>
</svg>
