<svg width="27" height="26" viewBox="0 0 27 26" fill="none" xmlns="http://www.w3.org/2000/svg">
<path d="M19.4583 3.79167C18.5963 3.79167 17.7697 4.13408 17.1602 4.74357C16.5507 5.35306 16.2083 6.17971 16.2083 7.04167C16.2083 7.90362 16.5507 8.73027 17.1602 9.33976C17.7697 9.94926 18.5963 10.2917 19.4583 10.2917C20.3202 10.2917 21.1469 9.94926 21.7564 9.33976C22.3659 8.73027 22.7083 7.90362 22.7083 7.04167C22.7083 6.17971 22.3659 5.35306 21.7564 4.74357C21.1469 4.13408 20.3202 3.79167 19.4583 3.79167ZM14.0416 7.04167C14.0416 5.60508 14.6123 4.22733 15.6281 3.2115C16.644 2.19568 18.0217 1.625 19.4583 1.625C20.8949 1.625 22.2726 2.19568 23.2885 3.2115C24.3043 4.22733 24.875 5.60508 24.875 7.04167C24.875 8.47826 24.3043 9.85601 23.2885 10.8718C22.2726 11.8877 20.8949 12.4583 19.4583 12.4583C18.0217 12.4583 16.644 11.8877 15.6281 10.8718C14.6123 9.85601 14.0416 8.47826 14.0416 7.04167ZM2.66663 2.16667H12.4166V11.9167H2.66663V2.16667ZM4.83329 4.33333V9.75H10.25V4.33333H4.83329ZM2.66663 14.0833H12.4166V23.8333H2.66663V14.0833ZM4.83329 16.25V21.6667H10.25V16.25H4.83329ZM14.5833 14.0833H24.3333V23.8333H14.5833V14.0833ZM22.1666 16.25H16.75V21.6667H22.1666V16.25Z" fill="url(#paint0_linear_650_750)"/>
<defs>
<linearGradient id="paint0_linear_650_750" x1="2.99997" y1="24" x2="24.1867" y2="3.57183" gradientUnits="userSpaceOnUse">
<stop stop-color="#DF2BFF"/>
<stop offset="1" stop-color="#00B7FF"/>
</linearGradient>
</defs>
</svg>
